<svg width="183" height="195" viewBox="0 0 183 195" fill="none" xmlns="http://www.w3.org/2000/svg">
<path d="M5.1 149C3.6 149 2.85 148.45 2.85 147.35C2.85 146.45 3.5 145.85 4.8 145.55L8.25 144.95C10.35 144.55 11.7 144 12.3 143.3C13 142.6 13.35 141.2 13.35 139.1V50.9C13.35 48.8 13 47.4 12.3 46.7C11.7 46 10.35 45.45 8.25 45.05L4.8 44.45C3.5 44.15 2.85 43.55 2.85 42.65C2.85 41.55 3.6 41 5.1 41H36.45C42.35 41 47.55 42.3 52.05 44.9C56.55 47.4 60.05 50.9 62.55 55.4C65.05 59.9 66.3 65.1 66.3 71C66.3 76.7 65.05 81.75 62.55 86.15C60.05 90.55 56.6 94 52.2 96.5C47.8 98.9 42.7 100.1 36.9 100.1H26.1C24.7 100.1 24 100.8 24 102.2V138.5C24 140.6 24.4 142.05 25.2 142.85C26 143.55 27.8 144.15 30.6 144.65L36.15 145.55C37.25 145.75 37.8 146.3 37.8 147.2C37.8 148.4 37.05 149 35.55 149H5.1ZM24 88.1C24 93.6 27.35 96.35 34.05 96.35C40.55 96.35 45.65 94.05 49.35 89.45C53.15 84.85 55.05 78.55 55.05 70.55C55.05 62.35 53.15 56 49.35 51.5C45.55 47 40.15 44.75 33.15 44.75C27.05 44.75 24 46.75 24 50.75V88.1ZM94.3863 150.35C89.9863 150.35 86.0363 148.85 82.5363 145.85C79.1363 142.75 76.4863 138.5 74.5863 133.1C72.6863 127.6 71.7363 121.25 71.7363 114.05C71.7363 105.65 73.0363 98.3 75.6363 92C78.2363 85.6 81.8363 80.6 86.4363 77C91.0363 73.4 96.2363 71.6 102.036 71.6C103.436 71.6 104.836 71.75 106.236 72.05C107.636 72.25 108.986 72.65 110.286 73.25C111.886 74.05 112.686 73.7 112.686 72.2V53C112.686 51.2 112.386 49.95 111.786 49.25C111.286 48.55 110.336 48.15 108.936 48.05L105.036 47.6C103.936 47.4 103.386 46.8 103.386 45.8C103.386 44.8 103.936 44.2 105.036 44C108.236 43.4 110.786 42.7 112.686 41.9C114.686 41.1 116.336 40.3 117.636 39.5C119.236 38.5 120.436 38 121.236 38C122.336 38 122.886 38.8 122.886 40.4V134.75C122.886 138.95 123.936 141.05 126.036 141.05C127.336 141.05 128.536 140.2 129.636 138.5C130.736 136.7 131.286 133.7 131.286 129.5C131.286 127.9 131.936 127.1 133.236 127.1C134.436 127.1 135.036 127.95 135.036 129.65C135.036 136.95 133.786 142.25 131.286 145.55C128.786 148.75 125.936 150.35 122.736 150.35C119.836 150.35 117.636 149.4 116.136 147.5C114.636 145.5 113.636 143.15 113.136 140.45C113.036 139.65 112.686 139.25 112.086 139.25C111.486 139.15 110.936 139.5 110.436 140.3C107.636 144.2 105.086 146.85 102.786 148.25C100.486 149.65 97.6863 150.35 94.3863 150.35ZM97.6863 143.45C100.286 143.45 102.686 142.6 104.886 140.9C107.186 139.1 109.036 136.7 110.436 133.7C111.936 130.7 112.686 127.35 112.686 123.65V89.9C112.686 85.4 111.636 81.85 109.536 79.25C107.536 76.65 104.886 75.35 101.586 75.35C95.9863 75.35 91.4363 78.65 87.9363 85.25C84.5363 91.75 82.8363 100.65 82.8363 111.95C82.8363 122.25 84.1363 130.1 86.7363 135.5C89.4363 140.8 93.0863 143.45 97.6863 143.45ZM148.541 138.95V80.3C148.541 77.9 147.341 76.7 144.941 76.7H141.491C140.291 76.7 139.691 76.2 139.691 75.2C139.691 74.2 140.291 73.65 141.491 73.55C146.191 73.05 148.541 71 148.541 67.4V66.5C148.541 61.3 149.291 56.45 150.791 51.95C152.391 47.45 154.641 43.8 157.541 41C160.541 38.2 164.191 36.8 168.491 36.8C172.491 36.8 175.841 37.95 178.541 40.25C181.241 42.55 182.591 45.3 182.591 48.5C182.591 50.4 182.091 51.85 181.091 52.85C180.191 53.75 178.941 54.2 177.341 54.2C175.341 54.2 173.891 53.55 172.991 52.25C172.191 50.95 171.541 49.5 171.041 47.9C170.541 46.2 169.891 44.7 169.091 43.4C168.391 42.1 167.091 41.45 165.191 41.45C163.191 41.45 161.591 42.6 160.391 44.9C159.291 47.1 158.741 51.3 158.741 57.5V70.7C158.741 71.9 159.341 72.5 160.541 72.5H173.441C174.941 72.5 175.691 73.2 175.691 74.6C175.691 76 174.941 76.7 173.441 76.7H160.541C159.341 76.7 158.741 77.3 158.741 78.5V138.95C158.741 141.05 159.041 142.5 159.641 143.3C160.341 144.1 161.741 144.6 163.841 144.8L171.791 145.55C172.891 145.75 173.441 146.3 173.441 147.2C173.441 148.4 172.691 149 171.191 149H139.991C138.491 149 137.741 148.45 137.741 147.35C137.741 146.25 138.391 145.65 139.691 145.55L143.441 145.25C145.541 145.05 146.891 144.5 147.491 143.6C148.191 142.6 148.541 141.05 148.541 138.95Z" fill="#1E1408"/>
<circle cx="115.5" cy="23.5" r="9.5" fill="#C17F24"/>
</svg>
